HIERARCHY
ROOT Hips
{
 OFFSET 0.000000 0.000000 0.000000
 CHANNELS 6 Xposition Yposition Zposition Yrotation Xrotation Zrotation
 JOINT Chest
 {
  OFFSET 0.000000 10.080317 -0.001081
  CHANNELS 3 Yrotation Xrotation Zrotation
  JOINT Chest2
  {
   OFFSET 0.000000 11.096852 0.001963
   CHANNELS 3 Yrotation Xrotation Zrotation
   JOINT Chest3
   {
    OFFSET 0.000000 10.026525 0.000000
    CHANNELS 3 Yrotation Xrotation Zrotation
    JOINT Chest4
    {
     OFFSET 0.000000 10.026525 0.000000
     CHANNELS 3 Yrotation Xrotation Zrotation
     JOINT Neck
     {
      OFFSET 0.000000 14.108171 0.000000
      CHANNELS 3 Yrotation Xrotation Zrotation
      JOINT Head
      {
       OFFSET 0.000000 9.333493 0.004668
       CHANNELS 3 Yrotation Xrotation Zrotation
       End Site
       {
        OFFSET 0.000000 17.851786 0.002438
       }
      }
     }
     JOINT RightCollar
     {
      OFFSET -3.071622 7.873185 0.000000
      CHANNELS 3 Yrotation Xrotation Zrotation
      JOINT RightShoulder
      {
       OFFSET -14.378659 0.000000 0.000000
       CHANNELS 3 Yrotation Xrotation Zrotation
       JOINT RightElbow
       {
        OFFSET -30.778728 0.000000 0.000000
        CHANNELS 3 Yrotation Xrotation Zrotation
        JOINT RightWrist
        {
         OFFSET -25.164217 0.000000 0.000000
         CHANNELS 3 Yrotation Xrotation Zrotation
         End Site
         {
          OFFSET -18.796788 0.000000 0.000000
         }
        }
       }
      }
     }
     JOINT LeftCollar
     {
      OFFSET 3.071622 7.873185 0.000000
      CHANNELS 3 Yrotation Xrotation Zrotation
      JOINT LeftShoulder
      {
       OFFSET 14.378659 0.000000 0.000000
       CHANNELS 3 Yrotation Xrotation Zrotation
       JOINT LeftElbow
       {
        OFFSET 30.778728 0.000000 0.000000
        CHANNELS 3 Yrotation Xrotation Zrotation
        JOINT LeftWrist
        {
         OFFSET 25.164217 0.000000 0.000000
         CHANNELS 3 Yrotation Xrotation Zrotation
         End Site
         {
          OFFSET 18.796788 0.000000 0.000000
         }
        }
       }
      }
     }
    }
   }
  }
 }
 JOINT RightHip
 {
  OFFSET -8.194923 0.005295 0.000540
  CHANNELS 3 Yrotation Xrotation Zrotation
  JOINT RightKnee
  {
   OFFSET 0.000000 -42.473320 -0.000511
   CHANNELS 3 Yrotation Xrotation Zrotation
   JOINT RightAnkle
   {
    OFFSET 0.000000 -41.474259 -0.000865
    CHANNELS 3 Yrotation Xrotation Zrotation
    JOINT RightToe
    {
     OFFSET 0.000000 -7.354994 16.712725
     CHANNELS 3 Yrotation Xrotation Zrotation
     End Site
     {
      OFFSET 0.000000 -1.553903 6.764158
     }
    }
   }
  }
 }
 JOINT LeftHip
 {
  OFFSET 8.194923 0.005295 0.000540
  CHANNELS 3 Yrotation Xrotation Zrotation
  JOINT LeftKnee
  {
   OFFSET 0.000000 -42.473320 -0.000511
   CHANNELS 3 Yrotation Xrotation Zrotation
   JOINT LeftAnkle
   {
    OFFSET 0.000000 -41.474259 -0.000865
    CHANNELS 3 Yrotation Xrotation Zrotation
    JOINT LeftToe
    {
     OFFSET 0.000000 -7.354994 16.712725
     CHANNELS 3 Yrotation Xrotation Zrotation
     End Site
     {
      OFFSET 0.000000 -1.553903 6.764158
     }
    }
   }
  }
 }
}
MOTION
Frames: 13
Frame Time: 0.016667
-44.795448 91.968770 149.212779 -103.570186 12.908971 44.391080 11.097866 2.204906 -10.563578 4.962179 0.751689 -4.739740 4.962179 0.751689 -4.739740 3.727676 0.525360 -3.561135 15.034290 25.923754 -4.811614 27.895261 14.209660 -11.706002 10.417644 -9.386926 9.556892 18.862144 -23.992070 43.350781 88.540933 -26.171167 43.370898 5.018193 -2.748444 -2.746536 0.364745 -4.237184 2.712736 18.349742 -23.994627 -43.007061 -55.316165 21.475441 -29.489025 -3.805466 6.323985 17.381816 2.532963 -47.281980 -38.310178 9.387105 47.489969 -7.958594 -11.651764 -22.309524 -1.058827 0.049858 0.358196 0.919480 -3.629639 10.468128 36.416916 -4.769865 10.806093 0.021643 -37.373043 21.447092 -56.965185 -0.719846 0.499166 -0.671498
-44.891198 92.104139 149.193389 -103.798327 12.361558 43.644766 11.047826 2.360870 -10.606214 4.961268 0.807111 -4.774008 4.961268 0.807111 -4.774008 3.727464 0.566662 -3.587279 15.071863 25.879806 -4.625088 27.929180 14.089009 -11.393982 10.431423 -9.400013 9.539585 18.874451 -24.077146 43.521059 88.229350 -26.217625 43.337663 5.089236 -2.844275 -2.882380 0.181277 -4.414310 2.530563 18.466742 -24.421198 -42.538989 -55.868560 21.376683 -29.590820 -3.749020 6.333027 17.409033 1.126304 -46.225139 -36.850354 9.755139 46.693593 -7.977475 -12.008947 -22.161120 -1.087308 0.032605 0.416748 0.847262 -4.180085 11.023883 36.635426 -4.164038 11.008321 -0.217588 -37.457829 21.636859 -56.820035 -0.420454 0.357723 -0.330551
-44.998823 92.217337 149.124647 -103.824035 11.748178 42.832441 10.903303 2.411551 -10.630934 4.917424 0.809788 -4.802632 4.917424 0.809788 -4.802632 3.694640 0.568781 -3.608707 15.099182 25.886689 -4.446331 27.940433 14.061036 -11.083358 10.437109 -9.417633 9.635475 19.066208 -24.213823 43.603610 88.136165 -26.036875 43.130343 5.200574 -2.849424 -3.105692 0.060380 -4.382251 2.282743 18.769684 -25.073861 -42.092750 -56.310475 21.072911 -29.497530 -3.673597 6.356041 17.551287 -0.386495 -45.116930 -35.455383 10.001939 45.890014 -7.856485 -12.257890 -22.111119 -1.195330 0.024583 0.502786 0.765490 -4.204659 11.138223 37.055725 -3.407389 11.065912 -0.439461 -37.821079 21.817015 -56.740408 -0.162466 0.511734 0.082093
-45.129874 92.321012 149.049359 -103.715301 10.977628 42.017855 10.793597 2.494057 -10.637962 4.875311 0.838097 -4.806260 4.875311 0.838097 -4.806260 3.663278 0.590318 -3.611589 15.053423 25.895233 -4.288616 27.825308 14.026750 -10.796638 10.326203 -9.490005 9.719810 19.188267 -24.420704 43.693539 88.380273 -25.742212 42.865763 5.294556 -2.797704 -3.266350 -0.274545 -4.391094 1.886437 19.094532 -25.809655 -41.584676 -56.737452 20.622775 -29.298909 -3.576233 6.405901 17.766937 -1.560333 -43.716971 -34.507347 9.656182 45.078086 -7.751910 -12.362118 -22.092475 -1.269594 -0.001613 0.596014 0.643237 -3.851370 10.771823 37.558008 -3.001594 11.325279 -0.790204 -38.003703 21.962595 -56.478517 0.026301 0.774362 0.460744
-45.249959 92.405337 148.949175 -103.495009 10.103092 41.166841 10.656927 2.586192 -10.583381 4.812888 0.882660 -4.781017 4.812888 0.882660 -4.781017 3.616762 0.624433 -3.592907 14.949850 25.899582 -4.167139 27.614847 13.982817 -10.564239 10.210584 -9.645988 9.742436 19.168184 -24.622532 43.765368 88.755211 -25.597529 42.634154 5.410997 -2.742604 -3.472830 -0.671206 -4.535297 1.345984 19.512269 -26.620273 -41.089989 -57.367914 20.138476 -29.223660 -3.494224 6.497088 17.971914 -2.821372 -42.232716 -33.548607 9.261493 44.257130 -7.620178 -12.520854 -22.075411 -1.340331 -0.006223 0.673531 0.529482 -3.733832 10.057039 38.075277 -2.733167 12.270010 -1.443676 -37.903659 22.084334 -56.048450 0.259993 0.928498 0.874289
-45.333626 92.483993 148.820816 -103.150681 9.215387 40.196347 10.543523 2.652893 -10.392444 4.748844 0.927906 -4.722741 4.748844 0.927906 -4.722741 3.568978 0.659325 -3.549442 14.851566 25.912217 -3.984577 27.400156 13.940351 -10.223609 10.227837 -9.812929 9.693144 19.031827 -24.774843 43.820327 89.114542 -25.649889 42.404087 5.606764 -2.777782 -3.678989 -1.045245 -4.730856 0.747603 19.830427 -27.444218 -40.612212 -58.294770 19.439795 -29.276195 -3.434786 6.630076 18.226051 -4.349504 -40.777778 -32.253920 9.027618 43.386870 -7.576374 -12.821690 -22.052144 -1.369210 -0.011429 0.785955 0.436591 -4.213566 9.082390 38.610956 -2.323617 14.144415 -2.451668 -37.638998 22.160169 -55.469878 0.628477 0.884447 1.385588
-45.396308 92.576690 148.673649 -102.632553 8.285490 39.221401 10.380071 2.710744 -10.188554 4.668955 0.962424 -4.652068 4.668955 0.962424 -4.652068 3.509201 0.686372 -3.496564 14.745716 25.854935 -3.741090 27.166228 13.754635 -9.788326 10.283567 -9.978695 9.624827 18.854230 -24.853227 43.844204 89.565806 -25.778271 42.043236 5.758226 -2.802732 -3.922033 -1.404591 -4.818078 0.123005 20.203132 -28.389731 -40.216470 -59.722496 18.669920 -29.451733 -3.428954 6.796879 18.552023 -5.838618 -39.233384 -30.971147 8.626241 42.465478 -7.650461 -13.223047 -21.949943 -1.420168 -0.002374 0.832445 0.412060 -5.176361 7.744445 38.983154 -1.853586 16.808722 -3.691963 -37.351753 22.337819 -54.807019 1.095384 0.686613 2.010716
-45.441746 92.683799 148.520255 -101.976745 7.354765 38.289989 10.264004 2.785820 -10.044820 4.606818 1.008268 -4.575377 4.606818 1.008268 -4.575377 3.462803 0.721808 -3.439276 14.659966 25.727331 -3.520620 26.979501 13.451129 -9.410547 10.257521 -10.142480 9.548901 18.591283 -24.979102 43.879265 89.935890 -26.092644 41.740491 5.861794 -2.831364 -4.148690 -1.839750 -4.928690 -0.410940 20.432510 -29.269811 -39.812063 -61.496414 17.662163 -29.601803 -3.418535 7.006526 18.927382 -7.199210 -37.599308 -29.799124 8.016742 41.417721 -7.848992 -13.599953 -21.839452 -1.524767 0.005818 0.914468 0.448108 -6.134065 5.965548 39.175448 -1.287818 19.926626 -5.070903 -37.252331 22.644893 -54.060790 1.607980 0.474425 2.788550
-45.481622 92.794893 148.360048 -101.219456 6.361597 37.344998 10.101050 2.882473 -9.892140 4.538052 1.069733 -4.498670 4.538052 1.069733 -4.498670 3.411534 0.768994 -3.382069 14.601015 25.549269 -3.335829 26.852568 13.069895 -9.109790 10.214657 -10.297026 9.482639 18.278450 -25.171308 43.946707 90.390888 -26.333248 41.460674 5.917226 -2.843258 -4.395591 -2.232598 -5.066899 -0.895464 20.655720 -30.171379 -39.442538 -63.582126 16.485873 -29.768888 -3.412408 7.216284 19.313971 -8.473028 -35.856419 -28.706822 7.361961 40.346611 -8.019273 -14.053931 -21.686405 -1.690104 0.028873 0.940758 0.528369 -6.723471 3.849481 39.203652 -0.480338 23.140843 -6.256785 -37.325544 22.983685 -53.487363 2.180867 0.440352 3.805683
-45.517940 92.899506 148.246051 -100.368535 5.304358 36.304332 9.984544 3.017211 -9.661048 4.464897 1.143174 -4.388551 4.464897 1.143174 -4.388551 3.356976 0.825421 -3.299865 14.538170 25.380412 -3.139105 26.714451 12.702378 -8.784941 10.176013 -10.392098 9.376298 17.974684 -25.365532 44.031302 91.121922 -26.436812 41.016150 5.957486 -2.796595 -4.585155 -2.655595 -5.092000 -1.344205 20.926467 -31.198738 -39.181888 -65.838770 14.991761 -30.008306 -3.384470 7.415890 19.684041 -9.745347 -34.059322 -27.670982 6.730630 39.280082 -8.065614 -14.481342 -21.561818 -1.857289 0.003603 0.984863 0.569759 -6.839705 1.561696 39.196958 0.601660 26.206301 -7.325713 -37.255320 23.319798 -52.855954 2.776411 0.707235 4.963309
-45.528919 92.979798 148.148943 -99.329710 4.175229 35.097737 9.781593 3.094689 -9.277056 4.341011 1.202693 -4.240250 4.341011 1.202693 -4.240250 3.264170 0.872003 -3.188805 14.447158 25.262238 -2.907545 26.512523 12.414728 -8.382899 10.198681 -10.425362 9.261610 17.688067 -25.503919 44.044688 92.021588 -26.510750 40.481875 5.948797 -2.742183 -4.746115 -2.955103 -4.953224 -1.804517 21.194429 -32.328594 -39.056068 -68.188476 13.304187 -30.278850 -3.273793 7.604952 19.851247 -11.126697 -32.207450 -26.543030 6.014351 38.220014 -8.051423 -14.922284 -21.446552 -2.056419 -0.004067 1.012297 0.600014 -6.653736 -0.854004 39.184801 1.845972 29.084381 -8.229466 -36.882239 23.551835 -52.138521 3.247003 1.123147 6.069168
-45.531093 93.046372 148.099121 -98.142598 3.021020 33.885229 9.544543 3.202741 -8.906276 4.203103 1.253101 -4.055918 4.203103 1.253101 -4.055918 3.160683 0.912031 -3.050607 14.342945 25.158539 -2.661553 26.281527 12.148855 -7.949398 10.243316 -10.409970 9.139648 17.428965 -25.632091 43.974077 92.809175 -26.767442 40.056459 6.009192 -2.735212 -4.897911 -3.208687 -4.749433 -2.223115 21.285241 -33.489648 -39.077390 -70.555606 11.599244 -30.514056 -3.138210 7.738074 19.762930 -12.342071 -30.296504 -25.639500 5.122890 37.131070 -7.940768 -15.330205 -21.317256 -2.233638 -0.011771 1.041080 0.591572 -6.138150 -3.391388 38.867063 2.960711 31.846365 -9.013194 -36.003945 23.770434 -51.301193 3.527260 1.521652 7.026294
-45.534853 93.117572 148.060413 -96.749903 1.880749 32.650569 9.168657 3.260786 -8.544548 4.037755 1.284322 -3.866289 4.037755 1.284322 -3.866289 3.036459 0.937791 -2.908232 14.227167 25.006585 -2.453996 26.042159 11.802663 -7.589857 10.288996 -10.426014 9.031134 17.208369 -25.754918 43.846104 93.554708 -27.032331 39.666740 6.065228 -2.744502 -5.157931 -3.384598 -4.586847 -2.565739 21.344106 -34.500611 -39.206087 -73.076411 9.954342 -30.705095 -2.953182 7.947611 19.710801 -13.709152 -28.428898 -24.717844 4.304260 35.978557 -7.785682 -15.728595 -21.139734 -2.379142 0.010735 1.038023 0.548208 -5.444662 -5.993592 38.151883 3.397804 34.194523 -9.859864 -34.577400 23.997129 -50.393831 3.659951 1.700363 7.696593
